<?xml version="1.0" encoding="utf-8"?>
<!-- Generator: Adobe Illustrator 19.0.0, SVG Export Plug-In . SVG Version: 6.00 Build 0)  -->
<svg version="1.1" id="Слой_1" xmlns="http://www.w3.org/2000/svg" xmlns:xlink="http://www.w3.org/1999/xlink" x="0px" y="0px"
	 width="80.7px" height="68.5px" viewBox="0 0 80.7 68.5" style="enable-background:new 0 0 80.7 68.5;" xml:space="preserve">
<style type="text/css">
	.st0{fill-rule:evenodd;clip-rule:evenodd;fill:#FFCB05;}
	.st1{fill-rule:evenodd;clip-rule:evenodd;fill:#231F20;}
	.st2{fill-rule:evenodd;clip-rule:evenodd;fill:#ED1C24;}
</style>
<g id="XMLID_6813_">
	<path class="st0" d="M48.1,45.6c-0.1,0.1-0.2,0.2-0.3,0.3c-0.5,0.6-0.8,1.1-0.9,1.5c-0.6,0.6-1.2,1.2-1.8,1.8
		c0.1,0.1,0.2,0.2,0.4,0.3c-0.2-0.1-0.5,0-0.9,0.4c0.1,0.1,0.2,0.2,0.4,0.2c0.3,0.1,0.6,0.1,0.9,0.1c0.4,0,0.8-0.1,1.2-0.3
		c0.4-0.2,0.7-0.5,0.9-0.9c0.1-0.2,0.1-0.4,0.2-0.6c0-0.1,0-0.2,0-0.2V45.6L48.1,45.6L48.1,45.6z M53.6,51.1c1-1.5,2.1-2.9,3.1-4.4
		c1.2-1.6,2.3-3.2,3.5-4.8c0.2-0.1,0.4-0.3,0.7-0.6c0.3-0.4,0.7-0.7,1-1.1c0.4-0.4,0.7-0.7,1.1-1c0.4-0.3,0.7-0.5,1-0.5
		c0.5,0,0.7,0.1,0.8,0.1c0,0.1,0-0.2,0-0.7c0-0.6,0.6-1.1,1.1-2c0.7-1.2,0.7-2,1.2-1.7c0.5,0.3,0.9,0.5,0.9,1.4c0,1-0.9,1.6-0.9,2.6
		c0,0.6,0,1,0.1,1.1c0.1,0.3,0.2,0.7,0.2,1c0,0,0,0,0,0.1c0,0,0,0,0-0.1c0-0.1,0.1-0.1,0.3-0.2c0.2-0.1,0.3-0.1,0.4-0.1
		c0.6,0,0.8,0.2,0.5,0.6c-0.3,0.4-0.4,0.8-0.4,1c0,0.2,0.1,0.6,0.4,1.1c0.3,0.5,0.4,1,0.4,1.3c0,0.8,0.3,1.4,0.8,1.8
		c0.5,0.4,0.8,1,0.8,1.8c0,0.4-0.1,1-0.3,1.7c-0.2,0.8-0.3,1.4-0.3,1.8c0,0.2-0.1,0.5,0.1,0.8c1.1,1.9-2.5,2.6,1.6,5.6
		c0.2,0.2,0.5,0.3,0.8,0.5c0.3,0.2,0.5,0.3,0.6,0.3c0.3,0,0.8-0.3,1.6-0.8c0.8-0.6,1.4-0.9,1.8-0.9c0.3,0,0.6,0.2,1.1,0.5
		c0.5,0.3,0.7,0.6,0.7,0.9c0.6-0.2,0.8-0.7,0.8-1.4c-0.1-0.7-0.1-1.2-0.1-1.6c0-0.2,0.1-0.3,0.2-0.4c0.1-0.1,0.2-0.3,0.2-0.4
		c0-0.4,0-0.8,0-1.1c0-0.1,0-0.2,0-0.4c0-0.2,0.1-0.3,0.1-0.4c0-0.2,0-0.6-0.1-1.3c-0.1-0.7-0.1-1.6-0.1-2.5c0-1-0.1-2-0.1-3.1
		c-0.1-1.1-0.1-2.1-0.1-2.9c0-0.4-0.1-1-0.2-1.8c-0.1-0.5-0.1-0.5-0.1-0.6c0,0,0,0,0-0.2c0-0.6-0.1-0.8-0.2-0.6
		c-0.1,0.2-0.4-0.8-0.7-0.8c-0.1,0-0.1,0-0.1,0c0,0,0,0-0.1,0c-0.1,0-0.1,0-0.2,0c-0.1,0-0.2-0.2-0.4-0.6c0-0.2,0.2-0.4,0.6-0.8
		c0.4-0.4,0.7-0.7,0.7-1c-0.1-0.5,0.8-6.3-0.1-5.9c-0.3,0.1-0.3,0.3-0.4,0.2c0,0-0.1,0-0.1-0.1c-0.1,0-0.2,0-0.2,0
		c-0.4-0.1-0.6-0.4-0.6-0.9c0-0.4,0.1-0.7,0.3-0.9c0.2-0.2,0.4-0.3,0.7-0.4c0.2-0.1,0.4-0.2,0.6-0.4c0.2-0.2,0.3-0.5,0.3-1
		c0-0.8-0.3-1.5-0.8-2.1c-0.5-0.6-0.8-1.5-0.8-2.7c0-0.2,0-0.5,0-0.8c0-0.3,0.1-0.6,0.1-1c0.1-0.5,0.2-1,0.2-1.5
		c-0.6-0.2-1.1-0.3-1.7-0.5c0.1-0.1,0.2-0.2,0.3-0.5c0.1-0.3,0.1-0.5,0.1-0.6c0-0.4-0.2-0.9-0.5-1.5c-0.5-0.9-0.9-1.5,0.5-1.6
		c0.7-0.1,0.7,0.7,0.7,1.5c0,0.9,0.4,1,0.6,1c0.2,0.1,0.1-0.2,0.3-0.8c1.1-4.1,0.2-5.1,0.2-6.2c0-0.2,0-0.4,0-0.6
		c1.1-2.2-0.7-6.2-2-4.9c-0.5,0.5-0.2-0.9-0.7-0.6C75,4,71.2,1.9,70.8,1.9c-0.4,0-0.7-0.1-1-0.4c-0.3-0.2-0.5-0.4-0.7-0.4
		c-0.1,0-0.1,0-0.2,0c0.1,0.1,0.2,0.4,0.3,0.7c0,0.1,0.1,0.2,0.1,0.2c0,0,0,0.1,0,0.1c0,0,0,0.1,0,0.1c0,0.2-0.2,0.3-0.5,0.4
		c-0.5,0-1,0.5-1.9,0.8c-2.3,0.7,0.5-0.8-5.3,0.1c-0.3,0-0.9,0.1-1.9,0.2c-0.9,0.1-1.9,0.2-2.8,0.2c0,0-0.1,0-0.1,0
		c-0.6,0-1.4,0.2-2.5,0.4c-1.1,0.3-2,0.4-2.5,0.4c-1,0-1.8,0.1-2.4,0.4c-0.6,0.2-1,0.5-1.4,0.8c-0.4,0.3-0.8,0.5-1.1,0.8
		c-0.4,0.3-0.9,0.4-1.5,0.4c-0.7,0-1.2,0.4-1.7,1.1c-0.5,0.8-0.3,2.2-1.3,2.6c-3.1,1.2-6.6,1.2-5,5.6c0.1,0.4,0.1,1.1,0.4,1.4
		c0.3,0.3,0.6,0.6,0.9,0.9c1.5,1.5,2.3,2,2.2,2.6c0,0.2-0.3,0.3-0.3,0.8c0,0.4,0.2,0.8,0.5,1.1c3.9,3.6,3.9,1.2,7.6,5.4
		c0.5,0.5,0.9,0.8,1.1,0.9c0.2,0.2,0.4,0.4,0.8,0.7c0.4,0.3,0.6,0.5,0.6,0.7c0,0.7,1.5,1.2,2.1,1.4c0.6,0.2,1.2,0.4,1.9,0.5
		c0.6,0.1,1.2,0.2,1.7,0.2c0,0,0.1,0,0.1,0c0.1,0,0.4,0,0.8-0.1c0.4-0.1,0.7-0.1,0.7,0c0.2,0.2,0.5,0.4,0.7,0.6c0,0.4-0.2,0.7-0.6,1
		c-0.4,0.3-0.8,0.5-1.3,0.8c-0.2,0.1-0.3,0.2-0.5,0.3c-0.2,0.1-0.5,0.3-0.7,0.4c-0.4,0.2-0.6,0.4-0.6,0.6c0,0.2,0,0.6-0.1,1.3
		c-0.1,0.7-0.2,1.4-0.4,2.1c-0.2,0.7-0.6,1.2-1,1.6c-0.1,0.1-0.3,0.2-0.4,0.2V51.1L53.6,51.1L53.6,51.1z M35.5,62.4
		c0.2,0.9,0.4,1.3,0.9,1.3c0.2,0,0.5-0.1,0.9-0.3c0.4-0.2,0.8-0.3,1-0.3c0.7,0,1,0.3,0.9,0.8c-0.1,0.6-0.2,1-0.2,1.5
		c0,1,0.1,1.4,0.4,1.1c0.3-0.3,0.7-0.4,1.2-0.4c0.2,0,0.4,0,0.7,0c0.2,0,0.4,0.5,0.6,1.4c0.1,0,0.2,0,0.2,0c0.9,0,3-2.8,3.7-4.2
		c1.6-2.9,3.4-5.7,5.2-8.4h-2h-0.9v-0.2c-0.3,0.1-0.6,0.2-0.9,0.3c-1.2,0.2-2.7,0.2-3.9-0.1c-0.6-0.1-1.1-0.3-1.6-0.6l-1.2,0.1
		c0,0.5-0.3,1-0.8,1.7c-0.5,0.6-1.1,1.3-1.7,2.1c-0.6,0.8-1.2,1.5-1.7,2.2C35.7,61,35.5,61.7,35.5,62.4L35.5,62.4L35.5,62.4z
		 M56.8,10c0.2,0,0.4,0,0.5,0c0.2,0,0.6-0.1,1-0.2c0.5-0.2,1-0.3,1.4-0.5c0.5-0.2,0.9-0.4,1.3-0.5c0.4-0.2,0.6-0.3,0.6-0.3
		c0.4,2.5,0.7,4.1,0.7,4.9c0,0.6,0,1.2,0,1.8c0,0.8,0,1.7,0.1,2.6c0.1,0.9,0.2,1.8,0.4,2.7c0.2,0.9,0.5,1.7,1,2.2
		c0.3,2,1-3.8,1.8,0.6c0.1,0.6,0.2,0.9,0.3,0.9c0.1,0,0.2,0,0.3,0c0.1,0.7,0.2,1.4,0.3,2.1c-0.3,0-0.6,0.1-0.9,0.4
		c-0.6,0.5-1.2,0.5-2,0.5c-1.2,0-2.5-1.2-3.9-3.8c-0.2,0.5-0.3,1-0.4,1.5c-0.1,0.5-0.2,0.8-0.4,0.8c-0.1,0-0.2,0-0.2,0
		c-0.1,0-0.2,0-0.4,0c-0.2,0-0.4-0.1-0.4-0.2c0-0.6,0.1-1.2,0.1-1.8c0.1-1-0.3-1.7-1-2.2c-0.1-0.1-0.2-0.1-0.3-0.2
		c-0.6-0.4-1.1-0.5-1.6-0.5c-0.2-0.5-0.7-1.1-1.6-1.8c-0.9-0.7-1.8-1.4-2.8-2.3c-1-0.8-1.9-1.6-2.7-2.4c-0.8-0.8-1.2-1.5-1.2-2.2
		c0.3-0.2,0.9-0.4,1.8-0.6c0.9-0.2,1.8-0.4,2.8-0.6c1-0.2,1.8-0.4,2.6-0.6c0.8-0.2,1.2-0.4,1.2-0.7c0-0.6-0.2-1.1-0.2-1.2
		c0,0,0.3,0.3,1,1.3C56.3,9.9,56.5,10,56.8,10L56.8,10L56.8,10z"/>
	<path class="st1" d="M42.1,35.2h0.5c1.5,0,2,0.7,2,1.6c0,0.8-0.7,1.6-2,1.6h-0.5h-2.7v-5.5h0.8v2.3H42.1L42.1,35.2L42.1,35.2z
		 M2.3,32.9l2.6,4.4l2.6-4.4h1.3v5.5H7.9v-4.9l-2.7,4.9H4.5l-2.8-4.8v4.8H0.9v-5.5H2.3L2.3,32.9L2.3,32.9z M11.7,35.2h3.7v0.7h-3.7
		v1.8h3.8v0.7h-4.6v-5.5h4.6v0.7h-3.8V35.2L11.7,35.2L11.7,35.2z M20.2,35.2h0.5c1.5,0,2,0.7,2,1.6c0,0.8-0.7,1.6-2,1.6h-0.5h-2.7
		v-5.5h2.7h2.1v0.7h-2.1h-1.9v1.6H20.2L20.2,35.2L20.2,35.2z M20.2,37.7h0.5c0.9,0,1.4-0.3,1.3-0.9c0-0.6-0.4-0.9-1.5-0.9h-0.4h-1.9
		v1.8H20.2L20.2,37.7L20.2,37.7z M25.7,35.2h3.7v0.7h-3.7v1.8h3.8v0.7h-4.6v-5.5h4.7v0.7h-3.8V35.2L25.7,35.2L25.7,35.2z M37.1,38.4
		h-0.8v-4.8h-3.5v2.7c0,0.7-0.1,1.2-0.3,1.6c-0.2,0.4-0.5,0.5-1.1,0.5H31v-0.7h0.2c0.3,0,0.5-0.1,0.7-0.2c0.1-0.2,0.2-0.5,0.2-1.1
		v-3.4h5.1V38.4L37.1,38.4L37.1,38.4z M42.1,37.7h0.5c0.9,0,1.4-0.3,1.4-0.9c0-0.6-0.4-0.9-1.5-0.9h-0.4h-1.9v1.8H42.1L42.1,37.7
		L42.1,37.7z"/>
	<path class="st2" d="M10.7,42.1c0.5,0.3,0.9,0.7,1.4,1.1c0.5-0.7,1.6-1.2,2.4-1.5c0.8-0.3,1.5-0.3,2.4-0.2c1,0,1.9,0.3,2.8,0.8
		c0.7,0.5,1.2,1,1.6,1.8c0.4,0.8,0.5,1.6,0.5,2.5c0,2.5,0,4.9,0,7.4c-1.2,0-2.5,0-3.7,0c0-2.3,0-4.5,0-6.8c0-0.2,0-0.5,0-0.7
		c-0.1-0.4-0.1-0.7-0.3-1c-0.1-0.2-0.2-0.4-0.5-0.5c-0.5-0.3-1.1-0.4-1.6-0.3c-0.8,0.1-1.2,0.3-1.8,0.9c-0.3,0.3-0.5,0.8-0.6,1.3
		c0,0.2,0,0.4-0.1,0.5c0,2.2,0,4.5,0,6.7c-1.2,0-2.5,0-3.7,0c0-2.3,0-4.5,0-6.8c0-0.3,0-0.6-0.1-0.9c-0.1-0.4-0.2-0.8-0.5-1.1
		c-0.4-0.4-1-0.6-1.5-0.6c-0.6,0-1.2,0.2-1.7,0.5c-0.4,0.3-0.9,0.9-1,1.5c-0.1,0.3-0.1,0.6-0.1,0.9c0,2.2,0,4.4,0,6.5
		c-1.3,0-2.5,0-3.8,0c0-4.1,0-8.2,0-12.3c1.3,0,2.5,0,3.8,0c0,0.2,0,0.4,0,0.6c0.3-0.2,0.6-0.4,1-0.5c0.8-0.2,1.4-0.4,2.3-0.4
		C8.8,41.5,9.9,41.7,10.7,42.1L10.7,42.1L10.7,42.1z M28.6,45.3c-0.4,0.3-0.8,0.8-0.9,1.3c0,0.8,0,1.6,0,2.4
		c0.1,0.4,0.3,0.8,0.6,1.1c0.7,0.8,1.6,1,2.6,0.9c1.1,0,1.9-0.2,2.6-1.2c0.5-0.9,0.6-2.2,0.4-3.1c-0.4-1.4-1.5-2.1-2.9-2.1
		C30.1,44.6,29.2,44.8,28.6,45.3L28.6,45.3L28.6,45.3z M29,53.9c-0.4-0.1-0.9-0.3-1.3-0.5c0,1.5,0,3,0,4.6c-1.3,0-2.5,0-3.8,0
		c0-5.4,0-10.9,0-16.3c1.3,0,2.5,0,3.8,0c0,0.2,0,0.4,0,0.6c1.1-0.6,2.4-0.8,3.7-0.9c1.4,0,2.7,0.3,3.9,1.1c1.6,1.1,2.4,3,2.5,4.8
		c0,1.4-0.2,2.8-0.9,4c-1.1,1.7-2.7,2.6-4.7,2.8C31,54.4,30,54.2,29,53.9L29,53.9L29,53.9z M43.5,54c-1.5-0.4-2.6-1.1-3.2-2.6
		c-0.3-0.6-0.4-1.2-0.5-1.8c0-0.4-0.1-0.7-0.1-1.2c0-2.2,0-4.5,0-6.7c1.2,0,2.5,0,3.7,0c0,2.3,0,4.5,0,6.8c0,0.5,0.1,0.9,0.2,1.4
		c0.2,0.6,0.5,1,1.1,1.1c0.4,0.1,0.8,0.2,1.2,0.1c0.5,0,1-0.1,1.5-0.3c0.6-0.3,1.1-0.7,1.4-1.3c0.1-0.3,0.2-0.6,0.2-0.9
		c0-0.1,0-0.2,0-0.3c0-2.2,0-4.4,0-6.6c1.3,0,2.5,0,3.8,0c0,4.1,0,8.2,0,12.3c-1.3,0-2.5,0-3.8,0c0-0.2,0-0.5,0-0.7c0,0,0,0,0,0
		c-0.1,0.1-0.2,0.1-0.3,0.2c-0.5,0.3-1.1,0.5-1.6,0.6C45.9,54.3,44.5,54.3,43.5,54L43.5,54L43.5,54z"/>
</g>
</svg>
