<svg width="56" height="57" viewBox="0 0 56 57" fill="none" xmlns="http://www.w3.org/2000/svg">
<path d="M7 14.25H11.6667H49" stroke="#868686" stroke-width="5" stroke-linecap="round" stroke-linejoin="round"/>
<path d="M18.6675 14.25V9.5C18.6675 8.24022 19.1591 7.03204 20.0343 6.14124C20.9095 5.25044 22.0965 4.75 23.3341 4.75H32.6675C33.9052 4.75 35.0921 5.25044 35.9673 6.14124C36.8425 7.03204 37.3341 8.24022 37.3341 9.5V14.25M44.3341 14.25V47.5C44.3341 48.7598 43.8425 49.968 42.9673 50.8588C42.0921 51.7496 40.9052 52.25 39.6675 52.25H16.3341C15.0965 52.25 13.9095 51.7496 13.0343 50.8588C12.1591 49.968 11.6675 48.7598 11.6675 47.5V14.25H44.3341Z" stroke="#868686" stroke-width="5" stroke-linecap="round" stroke-linejoin="round"/>
<path d="M23.3325 26.125V40.375" stroke="#868686" stroke-width="5" stroke-linecap="round" stroke-linejoin="round"/>
<path d="M32.6675 26.125V40.375" stroke="#868686" stroke-width="5" stroke-linecap="round" stroke-linejoin="round"/>
</svg>
